<?xml version="1.0" encoding="UTF-8"?>
<svg xmlns="http://www.w3.org/2000/svg" xmlns:xlink="http://www.w3.org/1999/xlink" width="500pt" height="550pt" viewBox="0 0 500 550" version="1.1">
<g id="surface1">
<path style=" stroke:none;fill-rule:evenodd;fill:rgb(0%,0%,0%);fill-opacity:1;" d="M 322.242188 268.886719 C 322.242188 268.886719 322.242188 268.722656 322.242188 268.722656 C 322.242188 268.722656 352.484375 275.382812 352.484375 301.535156 C 352.484375 301.535156 352.484375 331.101562 319.847656 331.101562 C 319.847656 331.101562 303.957031 331.101562 296.945312 320.335938 C 296.945312 320.335938 292.503906 313.5 292.503906 305.121094 C 292.503906 305.121094 292.503906 286.835938 307.542969 283.246094 C 307.542969 283.246094 300.195312 292.128906 300.195312 302.214844 C 300.195312 302.214844 300.195312 323.234375 320.1875 323.234375 C 320.1875 323.234375 324.976562 323.234375 328.050781 322.042969 C 328.050781 322.042969 343.945312 317.425781 343.945312 301.535156 C 343.945312 301.535156 343.945312 295.726562 343.253906 293.15625 C 343.253906 293.15625 341.382812 279.148438 317.113281 272.136719 C 317.113281 272.136719 191.332031 272.3125 191.332031 272.3125 C 191.332031 272.3125 219.191406 290.421875 239.523438 318.105469 C 239.523438 318.105469 250.800781 333.660156 280.199219 388.183594 C 280.199219 388.183594 310.441406 444.75 319.675781 457.910156 C 319.675781 457.910156 339.503906 486.621094 365.992188 507.640625 C 365.992188 507.640625 381.03125 516.523438 400.339844 516.523438 C 400.339844 516.523438 444.089844 516.523438 460.15625 478.753906 C 460.15625 478.753906 460.667969 477.5625 461.183594 474.992188 C 461.183594 474.992188 461.695312 472.949219 463.226562 465.9375 C 463.226562 465.9375 467.164062 448.503906 467.164062 433.976562 C 467.164062 433.976562 467.164062 411.9375 458.273438 389.375 C 458.273438 389.375 450.757812 375.703125 430.589844 375.703125 C 430.589844 375.703125 412.128906 375.703125 399.660156 396.550781 C 399.660156 396.550781 394.191406 405.605469 394.191406 424.242188 C 394.191406 424.242188 394.191406 459.789062 416.230469 478.582031 C 416.230469 478.582031 399.660156 475.507812 392.824219 470.550781 C 392.824219 470.550781 376.582031 458.925781 371.964844 433.300781 C 371.964844 433.300781 370.949219 427.65625 370.949219 422.699219 C 370.949219 422.699219 370.949219 403.5625 382.738281 386.125 C 382.738281 386.125 398.632812 362.71875 434.179688 362.71875 C 434.179688 362.71875 463.566406 362.71875 477.414062 379.804688 C 477.414062 379.804688 497.582031 404.753906 497.582031 438.417969 C 497.582031 438.417969 497.582031 456.542969 490.570312 475.167969 C 490.570312 475.167969 463.226562 529.679688 394.015625 529.679688 C 394.015625 529.679688 379.152344 529.679688 364.277344 527.121094 C 364.277344 527.121094 343.253906 520.800781 325.316406 505.410156 C 325.316406 505.410156 312.324219 494.308594 282.082031 460.984375 C 282.082031 460.984375 279.171875 491.234375 248.066406 513.109375 C 248.066406 513.109375 219.355469 533.445312 187.746094 533.445312 C 187.746094 533.445312 147.070312 533.445312 134.25 499.089844 C 134.25 499.089844 130.839844 490.03125 130.839844 479.09375 C 130.839844 479.09375 130.839844 455.515625 146.894531 442.015625 C 146.894531 442.015625 156.976562 433.464844 175.265625 433.464844 C 175.265625 433.464844 196.800781 433.464844 209.105469 450.042969 C 209.105469 450.042969 213.03125 455.339844 213.03125 465.082031 C 213.03125 465.082031 213.03125 482.683594 202.785156 492.941406 C 202.785156 492.941406 202.09375 492.425781 202.09375 491.738281 C 202.09375 491.738281 202.433594 490.03125 202.433594 489.179688 C 202.433594 489.179688 202.433594 485.929688 202.433594 485.929688 C 202.433594 485.929688 202.609375 484.050781 202.609375 479.433594 C 202.609375 479.433594 202.609375 465.421875 196.464844 456.367188 C 196.464844 456.367188 192.359375 450.382812 181.25 450.382812 C 181.25 450.382812 171.851562 450.382812 165.695312 455.339844 C 165.695312 455.339844 153.390625 465.421875 153.390625 479.269531 C 153.390625 479.269531 153.390625 484.226562 154.933594 490.546875 C 154.933594 490.546875 161.769531 518.40625 191.671875 518.40625 C 191.671875 518.40625 200.726562 518.40625 210.300781 513.449219 C 210.300781 513.449219 231.660156 502.335938 241.230469 487.472656 C 241.230469 487.472656 249.945312 473.964844 255.753906 446.621094 C 255.753906 446.621094 256.105469 445.089844 256.105469 442.871094 C 256.105469 442.871094 256.105469 428.507812 241.40625 398.429688 C 241.40625 398.429688 206.195312 326.144531 160.742188 294.359375 C 160.742188 294.359375 134.074219 275.722656 113.742188 275.722656 C 113.742188 275.722656 103.65625 275.722656 96.484375 281.027344 C 96.484375 281.027344 80.414062 292.992188 80.414062 305.460938 C 80.414062 305.460938 82.984375 322.558594 99.894531 322.558594 C 99.894531 322.558594 118.695312 320.160156 118.695312 300.332031 C 118.695312 300.332031 118.695312 293.847656 117.503906 289.746094 C 117.503906 289.746094 126.046875 291.789062 126.046875 304.949219 C 126.046875 304.949219 123.3125 332.292969 99.390625 332.292969 C 99.390625 332.292969 93.234375 332.292969 84.515625 329.394531 C 84.515625 329.394531 69.652344 318.792969 69.652344 302.726562 C 69.652344 302.726562 69.652344 284.789062 80.929688 272.3125 C 80.929688 272.3125 18.890625 272.136719 18.890625 272.136719 C 18.890625 272.136719 7.953125 282.558594 7.953125 287.351562 C 7.953125 287.351562 7.953125 293.847656 14.453125 293.847656 C 14.453125 293.847656 18.039062 293.847656 24.023438 288.890625 C 24.023438 288.890625 23.683594 290.082031 22.140625 292.820312 C 22.140625 292.820312 19.582031 297.433594 14.277344 297.433594 C 14.277344 297.433594 3.175781 297.433594 2.824219 284.953125 C 2.824219 284.953125 2.660156 277.441406 13.9375 268.722656 C 13.9375 268.722656 2.660156 260.003906 2.824219 252.65625 C 2.824219 252.65625 3.175781 240.175781 14.277344 240.175781 C 14.277344 240.175781 20.773438 240.175781 24.023438 248.554688 C 24.023438 248.554688 17.011719 243.601562 14.453125 243.601562 C 14.453125 243.601562 7.953125 243.601562 7.953125 250.261719 C 7.953125 250.261719 7.953125 256.242188 11.378906 257.949219 C 11.378906 257.949219 11.378906 257.949219 11.890625 258.464844 C 11.890625 258.464844 12.394531 258.976562 12.394531 258.976562 C 12.394531 258.976562 14.453125 260.683594 18.890625 265.476562 C 18.890625 265.476562 23.847656 265.476562 47.089844 265.300781 C 47.089844 265.300781 80.929688 265.136719 80.929688 265.136719 C 80.929688 265.136719 69.652344 252.480469 69.652344 234.882812 C 69.652344 234.882812 69.652344 218.476562 84.515625 208.050781 C 84.515625 208.050781 91.1875 205.320312 99.21875 205.320312 C 99.21875 205.320312 123.3125 205.320312 126.046875 232.660156 C 126.046875 232.660156 126.046875 243.773438 117.503906 247.699219 C 117.503906 247.699219 118.695312 243.601562 118.695312 237.101562 C 118.695312 237.101562 118.695312 217.449219 99.894531 215.0625 C 99.894531 215.0625 83.324219 215.0625 80.414062 231.972656 C 80.414062 231.972656 80.414062 244.792969 96.484375 256.582031 C 96.484375 256.582031 103.65625 261.886719 113.742188 261.886719 C 113.742188 261.886719 134.074219 261.886719 160.742188 243.261719 C 160.742188 243.261719 206.710938 211.125 241.40625 139.179688 C 241.40625 139.179688 256.105469 108.585938 256.105469 94.75 C 256.105469 94.75 256.105469 93.722656 255.753906 90.988281 C 255.753906 90.988281 251.3125 66.542969 240.890625 49.796875 C 240.890625 49.796875 232.175781 35.613281 210.300781 24.160156 C 210.300781 24.160156 200.902344 19.207031 191.671875 19.207031 C 191.671875 19.207031 161.933594 19.207031 154.933594 47.0625 C 154.933594 47.0625 153.390625 53.222656 153.390625 58.339844 C 153.390625 58.339844 153.390625 72.1875 165.695312 82.445312 C 165.695312 82.445312 171.679688 87.402344 181.25 87.402344 C 181.25 87.402344 192.359375 87.402344 196.464844 81.417969 C 196.464844 81.417969 202.609375 72.363281 202.609375 58.175781 C 202.609375 58.175781 202.609375 56.296875 202.433594 52.191406 C 202.433594 52.191406 202.269531 48.09375 202.269531 48.09375 C 202.269531 48.09375 202.269531 47.238281 202.09375 46.035156 C 202.09375 46.035156 202.269531 44.84375 202.785156 44.667969 C 202.785156 44.667969 213.03125 54.925781 213.03125 72.363281 C 213.03125 72.363281 213.03125 82.445312 209.105469 87.738281 C 209.105469 87.738281 196.964844 104.320312 175.441406 104.320312 C 175.441406 104.320312 157.152344 104.320312 146.894531 95.605469 C 146.894531 95.605469 130.839844 81.933594 130.839844 58.515625 C 130.839844 58.515625 130.839844 47.578125 134.25 38.347656 C 134.25 38.347656 146.894531 4.003906 187.570312 4.003906 C 187.570312 4.003906 233.714844 4.003906 265.839844 40.566406 C 265.839844 40.566406 280.199219 56.972656 282.082031 76.628906 C 282.082031 76.628906 311.644531 43.988281 325.832031 32.023438 C 325.832031 32.023438 344.28125 16.472656 364.277344 10.488281 C 364.277344 10.488281 379.152344 7.929688 394.191406 7.929688 C 394.191406 7.929688 463.226562 7.929688 490.570312 62.277344 C 490.570312 62.277344 497.582031 81.078125 497.582031 99.191406 C 497.582031 99.191406 497.582031 132.519531 477.414062 157.804688 C 477.414062 157.804688 463.742188 174.902344 434.179688 174.902344 C 434.179688 174.902344 400.171875 174.902344 382.738281 151.308594 C 382.738281 151.308594 370.949219 135.253906 370.949219 115.082031 C 370.949219 115.082031 370.949219 108.074219 372.316406 101.925781 C 372.316406 101.925781 377.609375 77.832031 392.824219 66.894531 C 392.824219 66.894531 400 61.761719 416.230469 58.855469 C 416.230469 58.855469 394.191406 77.480469 394.191406 113.542969 C 394.191406 113.542969 394.191406 132.167969 399.660156 141.234375 C 399.660156 141.234375 412.304688 162.082031 430.589844 161.90625 C 430.589844 161.90625 450.925781 161.742188 458.273438 148.410156 C 458.273438 148.410156 467.164062 125.847656 467.164062 103.808594 C 467.164062 103.808594 467.164062 89.445312 463.226562 71.507812 C 463.226562 71.507812 463.0625 70.480469 460.832031 61.074219 C 460.832031 61.074219 456.730469 42.960938 437.425781 31.511719 C 437.425781 31.511719 419.992188 21.085938 400.339844 21.085938 C 400.339844 21.085938 381.03125 21.085938 365.992188 29.980469 C 365.992188 29.980469 324.628906 62.617188 279.511719 150.628906 C 279.511719 150.628906 254.902344 198.820312 238.496094 221.035156 C 238.496094 221.035156 219.191406 247.1875 191.332031 265.136719 C 191.332031 265.136719 264.648438 265.300781 264.648438 265.300781 C 264.648438 265.300781 269.261719 265.300781 274.390625 265.300781 C 274.390625 265.300781 279.347656 265.476562 279.859375 265.476562 C 279.859375 265.476562 317.113281 265.476562 317.113281 265.476562 C 317.113281 265.476562 341.035156 257.949219 343.253906 244.277344 C 343.253906 244.277344 343.945312 241.71875 343.945312 235.910156 C 343.945312 235.910156 343.945312 220.359375 328.050781 215.566406 C 328.050781 215.566406 324.113281 214.375 320.1875 214.375 C 320.1875 214.375 300.195312 214.375 300.195312 235.398438 C 300.195312 235.398438 300.195312 243.773438 307.542969 254.199219 C 307.542969 254.199219 292.503906 250.949219 292.503906 232.488281 C 292.503906 232.488281 292.503906 224.121094 296.945312 217.285156 C 296.945312 217.285156 303.957031 206.511719 319.675781 206.511719 C 319.675781 206.511719 352.484375 206.511719 352.484375 236.074219 C 352.484375 236.074219 352.484375 262.226562 322.242188 268.886719 C 322.242188 268.886719 322.242188 268.722656 322.242188 268.722656 C 322.242188 268.722656 322.242188 268.886719 322.242188 268.886719 Z M 322.242188 268.886719 "/>
</g>
</svg>
